<svg xmlns="http://www.w3.org/2000/svg" xmlns:xlink="http://www.w3.org/1999/xlink" width="500" zoomAndPan="magnify" viewBox="0 0 375 374.999991" height="500" preserveAspectRatio="xMidYMid meet" version="1.0"><defs><g/></defs><g fill="#fbfbf5" fill-opacity="1"><g transform="translate(75.351916, 210.289455)"><g><path d="M 3.554688 -69.636719 L 3.554688 -9.316406 C 3.554688 -4.816406 2.921875 -2.132812 0.789062 0 L 17.289062 0 C 21.949219 0 26.054688 -2.132812 26.054688 -6.949219 C 26.054688 -18.316406 8.132812 -30 8.132812 -55.265625 C 8.132812 -58.898438 8.449219 -63.871094 11.054688 -63.871094 C 14.84375 -63.871094 22.34375 -39.632812 24.160156 -34.109375 C 28.1875 -21.871094 32.210938 -7.972656 35.054688 -7.972656 C 38.132812 -7.972656 40.34375 -20.605469 43.582031 -33.871094 C 47.132812 -48.476562 51.554688 -63.871094 54.554688 -63.871094 C 57.160156 -63.871094 57.476562 -58.898438 57.476562 -55.265625 L 57.476562 -9.316406 C 57.476562 -4.816406 56.847656 -2.132812 54.714844 0 L 81.164062 0 C 79.03125 -2.132812 78.398438 -4.816406 78.398438 -9.316406 L 78.398438 -69.636719 C 78.398438 -74.136719 79.03125 -76.820312 81.164062 -78.953125 L 56.214844 -78.953125 C 48.714844 -78.953125 48.632812 -69.953125 41.054688 -47.132812 C 33.476562 -69.953125 33.398438 -78.953125 25.894531 -78.953125 L 0.789062 -78.953125 C 2.921875 -76.820312 3.554688 -74.136719 3.554688 -69.636719 Z M 3.554688 -69.636719 "/></g></g></g><g fill="#fbfbf5" fill-opacity="1"><g transform="translate(164.802113, 210.289455)"><g><path d="M 0.789062 0 L 17.289062 0 C 21.949219 0 26.054688 -2.132812 26.054688 -6.949219 C 26.054688 -18.316406 8.132812 -30 8.132812 -55.265625 C 8.132812 -58.898438 8.449219 -63.871094 11.054688 -63.871094 C 13.894531 -63.871094 16.738281 -54.476562 19.660156 -45.792969 C 21.394531 -40.582031 26.292969 -26.84375 28.34375 -20.605469 C 31.816406 -9.949219 34.898438 0 44.054688 0 L 64.742188 0 C 62.609375 -2.132812 61.976562 -4.816406 61.976562 -9.316406 L 61.976562 -69.636719 C 61.976562 -74.136719 62.609375 -76.820312 64.742188 -78.953125 L 48.238281 -78.953125 C 43.582031 -78.953125 39.476562 -76.820312 39.476562 -72.003906 C 39.476562 -60.636719 57.398438 -48.949219 57.398438 -23.6875 C 57.398438 -20.054688 57.082031 -15.078125 54.476562 -15.078125 C 51.636719 -15.078125 48.792969 -24.476562 45.871094 -33.160156 L 38.449219 -55.265625 C 31.34375 -76.425781 29.84375 -78.953125 24.316406 -78.953125 L 0.789062 -78.953125 C 2.921875 -76.820312 3.554688 -74.136719 3.554688 -69.636719 L 3.554688 -9.316406 C 3.554688 -4.816406 2.921875 -2.132812 0.789062 0 Z M 0.789062 0 "/></g></g></g><g fill="#fbfbf5" fill-opacity="1"><g transform="translate(237.830875, 210.289455)"><g><path d="M 33.949219 1.183594 C 50.765625 1.183594 60.242188 -14.527344 60.242188 -24.710938 C 60.242188 -28.34375 59.214844 -28.976562 58.265625 -28.976562 C 54.398438 -28.976562 54.003906 -17.289062 40.1875 -17.289062 C 21.316406 -17.289062 11.054688 -41.921875 11.054688 -58.1875 C 11.054688 -61.109375 12.238281 -67.742188 17.527344 -67.742188 C 26.605469 -67.742188 31.660156 -60.320312 42.476562 -58.582031 C 43.898438 -58.347656 44.6875 -57.792969 44.6875 -56.6875 C 44.6875 -53.449219 28.34375 -50.214844 28.34375 -38.371094 C 28.34375 -32.054688 33.710938 -27 40.109375 -27 C 46.738281 -27 52.660156 -32.449219 52.660156 -38.371094 C 52.660156 -39.949219 52.1875 -42.714844 50.925781 -42.714844 C 50.054688 -42.714844 50.214844 -41.921875 48.554688 -41.921875 C 45.792969 -41.921875 43.976562 -44.214844 43.976562 -46.820312 C 43.898438 -52.582031 51.160156 -58.265625 54.554688 -62.6875 C 56.136719 -64.742188 57.320312 -67.03125 58.03125 -68.6875 C 60.242188 -73.820312 61.347656 -80.136719 58.265625 -80.136719 C 55.820312 -80.136719 54.242188 -76.980469 48.792969 -76.980469 C 41.609375 -76.980469 36.792969 -80.136719 30.632812 -80.136719 C 11.210938 -80.136719 1.972656 -59.054688 1.972656 -39.476562 C 1.972656 -12.238281 16.265625 1.183594 33.949219 1.183594 Z M 33.949219 1.183594 "/></g></g></g><g fill="#f9e9d0" fill-opacity="1"><g transform="translate(140.87593, 236.143753)"><g><path d="M 0.378906 -7.59375 C 0.378906 -2.355469 3.128906 0.226562 6.53125 0.226562 C 9.765625 0.226562 11.589844 -2.6875 11.589844 -4.753906 C 11.589844 -5.453125 11.390625 -5.574219 11.207031 -5.574219 C 10.464844 -5.574219 10.386719 -3.324219 7.730469 -3.324219 C 5.621094 -3.324219 3.539062 -5.285156 2.628906 -8.078125 C 2.535156 -8.382812 2.460938 -8.929688 2.945312 -8.929688 C 4.207031 -8.929688 5.238281 -6.179688 7.488281 -6.179688 C 9.355469 -6.179688 10.085938 -7.714844 10.085938 -8.734375 C 10.085938 -9.21875 9.949219 -9.597656 9.703125 -9.597656 C 9.445312 -9.597656 9.292969 -9.007812 8.597656 -9.007812 C 7.410156 -9.007812 6.074219 -10.25 4.570312 -10.25 C 3.21875 -10.25 2.871094 -9.460938 2.414062 -9.460938 C 2.003906 -9.460938 2.125 -10.90625 2.125 -11.191406 C 2.125 -11.753906 2.355469 -13.03125 3.371094 -13.03125 C 5.347656 -13.03125 6.332031 -11.207031 9.035156 -11.207031 C 10.128906 -11.207031 10.859375 -12.5 11.164062 -13.214844 C 11.589844 -14.199219 11.800781 -15.414062 11.207031 -15.414062 C 10.738281 -15.414062 10.433594 -14.808594 9.386719 -14.808594 C 8.003906 -14.808594 7.078125 -15.414062 5.894531 -15.414062 C 2.15625 -15.414062 0.378906 -11.359375 0.378906 -7.59375 Z M 0.378906 -7.59375 "/></g></g></g><g fill="#f9e9d0" fill-opacity="1"><g transform="translate(154.210955, 236.143753)"><g><path d="M 4.84375 0.226562 C 9.082031 0.226562 10.859375 -2.839844 10.859375 -5.542969 C 10.859375 -7.882812 9.128906 -9.566406 6.578125 -9.8125 C 4.28125 -10.023438 1.414062 -10.328125 1.414062 -11.96875 C 1.414062 -12.542969 1.867188 -13.03125 2.429688 -13.03125 C 4.464844 -13.03125 5.863281 -11.207031 8.09375 -11.207031 C 9.949219 -11.207031 11.328125 -15.414062 10.265625 -15.414062 C 9.796875 -15.414062 9.492188 -14.808594 8.445312 -14.808594 C 7.0625 -14.808594 6.136719 -15.414062 4.949219 -15.414062 C 2.398438 -15.414062 0.257812 -13.351562 0.257812 -10.796875 C 0.257812 -7.59375 2.839844 -6.683594 5.847656 -5.757812 C 7.351562 -5.285156 8.703125 -4.554688 8.703125 -3.007812 C 8.703125 -1.835938 7.65625 -0.957031 6.484375 -0.957031 C 4.117188 -0.957031 4.390625 -3.160156 4.601562 -4.753906 C 4.679688 -5.332031 4.28125 -5.632812 3.828125 -5.648438 C 3.039062 -5.679688 0.152344 -4.175781 0.152344 -3.265625 C 0.152344 -1.441406 2.308594 0.226562 4.84375 0.226562 Z M 4.84375 0.226562 "/></g></g></g><g fill="#f9e9d0" fill-opacity="1"><g transform="translate(166.892912, 236.143753)"><g><path d="M 0.636719 -9.28125 C 1.398438 -9.28125 2.75 -14.429688 3.722656 -14.429688 C 4.160156 -14.429688 4.191406 -13.925781 4.191406 -13.457031 L 4.191406 -1.792969 C 4.191406 -0.925781 4.070312 -0.410156 3.660156 0 L 8.746094 0 C 8.339844 -0.410156 8.214844 -0.925781 8.214844 -1.792969 L 8.214844 -13.457031 C 8.214844 -13.925781 8.246094 -14.429688 8.6875 -14.429688 C 9.660156 -14.429688 11.011719 -9.28125 11.769531 -9.28125 C 11.984375 -9.28125 12.105469 -9.445312 12.105469 -9.644531 L 12.105469 -15.1875 L 0.304688 -15.1875 L 0.304688 -9.644531 C 0.304688 -9.445312 0.425781 -9.28125 0.636719 -9.28125 Z M 0.636719 -9.28125 "/></g></g></g><g fill="#f9e9d0" fill-opacity="1"><g transform="translate(180.744305, 236.143753)"><g><path d="M 0.304688 -1.761719 C 0.304688 -0.652344 1.183594 0.226562 2.292969 0.226562 C 3.386719 0.226562 4.269531 -0.652344 4.269531 -1.761719 C 4.269531 -2.855469 3.386719 -3.734375 2.292969 -3.734375 C 1.183594 -3.734375 0.304688 -2.855469 0.304688 -1.761719 Z M 0.304688 -1.761719 "/></g></g></g><g fill="#f9e9d0" fill-opacity="1"><g transform="translate(186.758924, 236.143753)"><g/></g></g><g fill="#f9e9d0" fill-opacity="1"><g transform="translate(193.51773, 236.143753)"><g><path d="M 0.609375 -11.574219 C 0.609375 -9.902344 1.945312 -8.519531 3.597656 -8.519531 C 5.117188 -8.519531 6.03125 -9.675781 5.679688 -10.433594 C 4.921875 -10.433594 4.070312 -11.238281 4.070312 -12.148438 C 4.070312 -13.773438 5.496094 -14.839844 7.214844 -14.839844 C 8.914062 -14.839844 10.238281 -14.078125 10.238281 -12.757812 C 10.238281 -8.855469 0.746094 -7.59375 0.746094 -2.78125 C 0.746094 -1.199219 1.792969 0 3.691406 0 C 5.800781 0 7.078125 -1.078125 8.792969 -1.078125 C 10.433594 -1.078125 10.480469 0 10.84375 0 C 11.101562 0 11.191406 -0.472656 11.511719 -1.183594 C 11.753906 -1.730469 12.210938 -2.703125 12.210938 -3.050781 C 12.210938 -3.949219 11.207031 -4.859375 9.855469 -4.859375 C 5.984375 -4.859375 4.785156 -1.125 2.535156 -1.125 C 1.945312 -1.125 1.671875 -1.625 1.671875 -2.171875 C 1.671875 -5.96875 12.316406 -3.613281 12.316406 -10.691406 C 12.316406 -13.882812 9.734375 -15.644531 6.515625 -15.644531 C 3.707031 -15.644531 0.609375 -14.304688 0.609375 -11.574219 Z M 0.609375 -11.574219 "/></g></g></g><g fill="#f9e9d0" fill-opacity="1"><g transform="translate(208.03738, 236.143753)"><g><path d="M 0.757812 -7.59375 C 0.757812 -2.902344 3.144531 0.226562 6.742188 0.226562 C 10.3125 0.226562 12.710938 -2.902344 12.710938 -7.59375 C 12.710938 -12.285156 10.3125 -15.414062 6.742188 -15.414062 C 3.144531 -15.414062 0.757812 -12.285156 0.757812 -7.59375 Z M 5.511719 -14.382812 C 8.71875 -14.382812 11.054688 -0.804688 7.667969 -0.804688 C 4.964844 -0.804688 2.671875 -14.382812 5.511719 -14.382812 Z M 5.511719 -14.382812 "/></g></g></g><g fill="#f9e9d0" fill-opacity="1"><g transform="translate(222.951909, 236.143753)"><g><path d="M 0.609375 -11.574219 C 0.609375 -9.902344 1.945312 -8.519531 3.597656 -8.519531 C 5.117188 -8.519531 6.03125 -9.675781 5.679688 -10.433594 C 4.921875 -10.433594 4.070312 -11.238281 4.070312 -12.148438 C 4.070312 -13.773438 5.496094 -14.839844 7.214844 -14.839844 C 8.914062 -14.839844 10.238281 -14.078125 10.238281 -12.757812 C 10.238281 -8.855469 0.746094 -7.59375 0.746094 -2.78125 C 0.746094 -1.199219 1.792969 0 3.691406 0 C 5.800781 0 7.078125 -1.078125 8.792969 -1.078125 C 10.433594 -1.078125 10.480469 0 10.84375 0 C 11.101562 0 11.191406 -0.472656 11.511719 -1.183594 C 11.753906 -1.730469 12.210938 -2.703125 12.210938 -3.050781 C 12.210938 -3.949219 11.207031 -4.859375 9.855469 -4.859375 C 5.984375 -4.859375 4.785156 -1.125 2.535156 -1.125 C 1.945312 -1.125 1.671875 -1.625 1.671875 -2.171875 C 1.671875 -5.96875 12.316406 -3.613281 12.316406 -10.691406 C 12.316406 -13.882812 9.734375 -15.644531 6.515625 -15.644531 C 3.707031 -15.644531 0.609375 -14.304688 0.609375 -11.574219 Z M 0.609375 -11.574219 "/></g></g></g><g fill="#f9e9d0" fill-opacity="1"><g transform="translate(237.471554, 236.143753)"><g><path d="M 0.609375 -11.574219 C 0.609375 -9.902344 1.945312 -8.519531 3.597656 -8.519531 C 5.117188 -8.519531 6.03125 -9.675781 5.679688 -10.433594 C 4.921875 -10.433594 4.070312 -11.238281 4.070312 -12.148438 C 4.070312 -13.773438 5.496094 -14.839844 7.214844 -14.839844 C 8.914062 -14.839844 10.238281 -14.078125 10.238281 -12.757812 C 10.238281 -8.855469 0.746094 -7.59375 0.746094 -2.78125 C 0.746094 -1.199219 1.792969 0 3.691406 0 C 5.800781 0 7.078125 -1.078125 8.792969 -1.078125 C 10.433594 -1.078125 10.480469 0 10.84375 0 C 11.101562 0 11.191406 -0.472656 11.511719 -1.183594 C 11.753906 -1.730469 12.210938 -2.703125 12.210938 -3.050781 C 12.210938 -3.949219 11.207031 -4.859375 9.855469 -4.859375 C 5.984375 -4.859375 4.785156 -1.125 2.535156 -1.125 C 1.945312 -1.125 1.671875 -1.625 1.671875 -2.171875 C 1.671875 -5.96875 12.316406 -3.613281 12.316406 -10.691406 C 12.316406 -13.882812 9.734375 -15.644531 6.515625 -15.644531 C 3.707031 -15.644531 0.609375 -14.304688 0.609375 -11.574219 Z M 0.609375 -11.574219 "/></g></g></g></svg>